<svg xmlns="http://www.w3.org/2000/svg" viewBox="0 0 1190.26 1147.37"><defs><style>.cls-1,.cls-2{fill:#fbb040;}.cls-2{stroke:#c49a6c;stroke-miterlimit:10;}</style></defs><title>Asset 1</title><g id="Layer_2" data-name="Layer 2"><g id="Layer_1-2" data-name="Layer 1"><path class="cls-1" d="M256.38,1120.12v16.68q0,4.83.79,5.77c.53.64,2.24,1,5.15,1.23l.68,0V1146H242.27v-2.21l.68,0c2.88-.19,4.59-.59,5.12-1.23s.81-2.55.81-5.77v-34.36c0-3.22-.27-5.14-.81-5.76s-2.24-1-5.12-1.21l-.68-.07v-2.21H263v2.21l-.68.07q-4.36.29-5.15,1.21t-.79,5.76V1117h25.14v-14.61q0-4.84-.8-5.76c-.54-.61-2.25-1-5.16-1.21l-.65-.07v-2.21h20.71v2.21l-.68.07q-4.36.29-5.14,1.21t-.79,5.76v34.36q0,4.83.79,5.77c.52.64,2.24,1,5.14,1.23l.68,0V1146H274.92v-2.21l.65,0q4.38-.28,5.17-1.21t.79-5.79v-16.68Z"/><path class="cls-1" d="M336.81,1146H298.7v-2.21l.68,0c2.88-.19,4.59-.59,5.12-1.23s.81-2.55.81-5.77v-34.36q0-4.84-.81-5.76c-.54-.61-2.24-1-5.12-1.21l-.68-.07v-2.21h36.14v9.25h-4l-.07-.68c-.19-3.29-.43-5.05-.73-5.32s-2.21-.39-5.73-.39H312.81v21.14l9.68,0a13,13,0,0,0,3.94-.34q.73-.34.88-3.37l0-.65h2.86v11.61h-2.86l0-.64q-.14-2.69-.87-3.21c-.48-.34-1.81-.51-3.94-.51h-9.68v16.75c0,2.76.32,4.49,1,5.16s2.35,1,5.09,1h5.65c4.19,0,6.58-.21,7.16-.62s1-2.2,1.12-5.34l0-.64h4Z"/><path class="cls-1" d="M351.95,1129.76l-3.05,7c-1.17,2.78-1.75,4.62-1.75,5.55s1.53,1.5,4.6,1.5h.57V1146H338.6v-2.21l.76,0q3.07-.14,3.66-.77c.39-.41,1.38-2.49,3-6.23l18.65-44.29h2.49l18.54,44.54q2.17,4.79,3.07,5.7t3.5,1l.83,0V1146H373.46v-2.21h.64c3.33,0,5-.47,5-1.43a15.28,15.28,0,0,0-1.5-5.6l-3-7Zm1.15-2.89h20.25l-10-24.08Z"/><path class="cls-1" d="M432.75,1146H394.56v-2.21l.68,0c2.88-.19,4.59-.59,5.13-1.23s.8-2.55.8-5.77v-34.36q0-4.84-.8-5.76c-.53-.61-2.25-1-5.13-1.21l-.68-.07v-2.21h20.72v2.21l-.69.07q-4.36.29-5.14,1.21t-.79,5.76v34.36q0,4.75.73,5.46c.48.47,2.31.72,5.5.72h5.45q6.47,0,7.41-.74c.62-.48,1-2.5,1.2-6l0-.71h3.75Z"/><path class="cls-1" d="M456,1143.84V1146H435.32v-2.21l.68,0c2.88-.19,4.59-.59,5.12-1.23s.81-2.55.81-5.77v-34.36q0-4.84-.81-5.76t-5.12-1.21l-.68-.07v-2.21H456v2.21l-.68.07q-4.35.29-5.14,1.21t-.79,5.76v34.36q0,4.83.79,5.77c.52.64,2.24,1,5.14,1.23Z"/><path class="cls-1" d="M501,1146.76l-31.94-44.29v34.33c0,3.24.26,5.16.79,5.77s2.25,1,5.18,1.23l.64,0V1146H459.14v-2.21l.65,0c2.93-.21,4.66-.63,5.18-1.23s.78-2.53.78-5.77v-34.36c0-3.25-.26-5.17-.78-5.78s-2.24-1-5.15-1.19l-.68-.07v-2.21h12l29.33,41v-31.78q0-4.84-.81-5.76t-5.16-1.21l-.64-.07v-2.21h16.47v2.21l-.68.07q-4.35.29-5.14,1.21t-.79,5.76v44.32Z"/><path class="cls-1" d="M559.11,1144.76a71.57,71.57,0,0,1-17.18,2.61q-11.75,0-18.72-7.55t-7-20.3q0-13.18,6.78-20.41t19.09-7.24a53.78,53.78,0,0,1,8.6.69,51.26,51.26,0,0,1,8.24,2v9.61h-4l0-.71c-.06-.64-.09-1.32-.09-2a5.87,5.87,0,0,0-3.29-5.27q-3.28-1.91-9.13-1.91-8.78,0-13.52,6.66t-4.75,18.95q0,11.5,5.3,18t14.7,6.5a30.83,30.83,0,0,0,7.43-1.18V1132.8c0-3.25-.26-5.17-.79-5.77s-2.25-1-5.18-1.23l-.64,0v-2.22h20.72v2.22l-.64,0c-2.93.21-4.66.63-5.18,1.23s-.79,2.53-.79,5.77Z"/><path class="cls-1" d="M603.9,1124v12.82c0,3.16.29,5.09.86,5.77s2.27,1.09,5.1,1.23l1.54,0V1146H589.86v-2.21l.68,0c2.88-.19,4.59-.59,5.12-1.23s.81-2.55.81-5.77v-34.36q0-4.84-.81-5.76t-5.12-1.21l-.68-.07v-2.21h15.6l5.17-.18,2.45-.07q15.31,0,15.31,14,0,8.53-5.56,12.81T606.12,1124Zm0-2.39h2.63q7,0,10.46-3.64t3.47-10.89q0-6.19-2.65-8.82t-8.87-2.64H603.9Z"/><path class="cls-1" d="M643.57,1129.76l-3.05,7c-1.17,2.78-1.75,4.62-1.75,5.55s1.53,1.5,4.6,1.5h.57V1146H630.22v-2.21l.76,0q3.07-.14,3.66-.77c.39-.41,1.38-2.49,3-6.23l18.65-44.29h2.49l18.54,44.54q2.18,4.79,3.07,5.7c.6.6,1.77,1,3.5,1l.83,0V1146H665.08v-2.21h.64c3.33,0,5-.47,5-1.43a15.31,15.31,0,0,0-1.5-5.6l-3-7Zm1.15-2.89H665l-10-24.08Z"/><path class="cls-1" d="M700.22,1122.76v14q0,4.78.74,5.77c.48.66,1.93,1.07,4.34,1.23l.68,0V1146H686.19v-2.21l.68,0c2.88-.19,4.59-.59,5.13-1.23s.8-2.55.8-5.77v-34.36q0-4.84-.8-5.76c-.54-.61-2.25-1-5.13-1.21l-.68-.07v-2.21h12.67l6.41-.18,2.84-.07q16.34,0,16.34,13.34,0,11.09-10.83,14.84l10.27,15.59a50.93,50.93,0,0,0,4.46,5.91,4.07,4.07,0,0,0,2.71,1q.5.07,2.39.14l.71,0V1146H720.69l-14.34-23.29Zm.07-2.39h2.62q13.89,0,13.88-13.25,0-6.29-2.6-8.92t-8.88-2.62h-5Z"/><path class="cls-1" d="M747.65,1129.76l-3.05,7c-1.18,2.78-1.76,4.62-1.76,5.55s1.53,1.5,4.61,1.5H748V1146H734.3v-2.21l.75,0q3.07-.14,3.66-.77t3-6.23l18.64-44.29h2.49l18.54,44.54c1.45,3.19,2.47,5.09,3.07,5.7s1.76,1,3.5,1l.82,0V1146H769.15v-2.21h.64q5,0,5-1.43a15.32,15.32,0,0,0-1.5-5.6l-3-7Zm1.15-2.89H769l-10-24.08Z"/><path class="cls-1" d="M790.27,1146v-2.21l.68,0c2.88-.19,4.59-.59,5.12-1.23s.81-2.55.81-5.77v-34.36q0-4.84-.81-5.76t-5.12-1.21l-.68-.07v-2.21h16.88l5.52-.15,2.57,0q12.39,0,19,6.57t6.59,18.89q0,12.75-6.81,20.16T815.52,1146Zm14.11-50.46v41.24q0,4.83,1,5.51,1.91,1.33,7.46,1.32,10.06,0,15.09-6.05t5-18.18q0-12.62-5.4-18.23T810,1095.59Z"/><path class="cls-1" d="M867.16,1143.84V1146H846.45v-2.21l.68,0c2.88-.19,4.59-.59,5.13-1.23s.8-2.55.8-5.77v-34.36q0-4.84-.8-5.76t-5.13-1.21l-.68-.07v-2.21h20.72v2.21l-.68.07q-4.36.29-5.14,1.21t-.79,5.76v34.36q0,4.83.79,5.77c.52.64,2.24,1,5.14,1.23Z"/><path class="cls-1" d="M872.94,1145V1134.8h3.75l0,.64c.07,1.2.1,2.08.1,2.68a4.68,4.68,0,0,0,2.32,4.25,15.54,15.54,0,0,0,8.36,2.36,9.32,9.32,0,0,0,10.11-10.15,10.61,10.61,0,0,0-1.71-6.36q-1.73-2.36-6.69-5.14l-3.75-2.14q-12.15-6.86-12.15-15a13.12,13.12,0,0,1,4.38-10.11,15.66,15.66,0,0,1,11-4,38.94,38.94,0,0,1,6.21.56,59.88,59.88,0,0,1,7.16,1.7v9.39h-4l0-.61c-.08-1.29-.12-2.23-.12-2.82a4.91,4.91,0,0,0-2.14-4.41c-1.43-.94-3.68-1.41-6.73-1.41a8.15,8.15,0,0,0-6.21,2.52,9.24,9.24,0,0,0-2.38,6.62,9.67,9.67,0,0,0,1.64,5.78,18.63,18.63,0,0,0,5.93,4.72l3.75,2.14q7.78,4.43,10.5,7.71A12.55,12.55,0,0,1,905,1132a14.11,14.11,0,0,1-4.91,11,17.78,17.78,0,0,1-12.27,4.37,49.5,49.5,0,0,1-8-.61A35.87,35.87,0,0,1,872.94,1145Z"/><path class="cls-1" d="M948,1146H909.88v-2.21l.68,0c2.88-.19,4.59-.59,5.12-1.23s.81-2.55.81-5.77v-34.36q0-4.84-.81-5.76t-5.12-1.21l-.68-.07v-2.21H946v9.25h-4l-.07-.68q-.29-4.93-.74-5.32t-5.73-.39H924v21.14l9.68,0a13,13,0,0,0,3.95-.34c.49-.23.78-1.35.88-3.37l0-.65h2.86v11.61h-2.86l0-.64c-.1-1.79-.39-2.86-.88-3.21s-1.8-.51-3.95-.51H924v16.75q0,4.14,1,5.16t5.09,1h5.64c4.19,0,6.58-.21,7.16-.62s1-2.2,1.13-5.34l0-.64h4Z"/><path class="cls-1" d="M94.3,1028.73q-22.27,5.71-37.6,5.71-25.72,0-41-16.53T.5,973.46q0-28.84,14.84-44.68T57.12,913a118.34,118.34,0,0,1,18.82,1.49,112.46,112.46,0,0,1,18,4.46v21H85.31l-.1-1.56c-.14-1.41-.21-2.89-.21-4.46q0-7.34-7.18-11.53t-20-4.18q-19.21,0-29.59,14.58T17.85,974.25q0,25.17,11.61,39.4t32.17,14.23a67.48,67.48,0,0,0,16.26-2.58v-22.75q0-10.65-1.72-12.64t-11.34-2.69l-1.4-.08v-4.85h45.34v4.85l-1.41.08q-9.62.7-11.34,2.69t-1.72,12.64Z"/><path class="cls-1" d="M138.77,995.9l-6.69,15.38q-3.86,9.09-3.86,12.14,0,3.28,10.09,3.28h1.25v4.85h-30v-4.85l1.64-.08q6.72-.31,8-1.68t6.53-13.64l40.81-96.94H172l40.58,97.49q4.77,10.47,6.72,12.46t7.67,2.31l1.79.08v4.85H185.84v-4.85h1.41q10.94,0,10.94-3.13,0-4.62-3.28-12.28l-6.47-15.4Zm2.51-6.33H185.6l-22-52.69Z"/><path class="cls-1" d="M323.75,1033.11l-69.89-96.93v75.13q0,10.62,1.71,12.63t11.34,2.7l1.41.08v4.85h-36.2v-4.85l1.41-.08q9.62-.7,11.34-2.7t1.72-12.62V936.09q0-10.66-1.71-12.64t-11.27-2.6l-1.48-.16v-4.85h26.18l64.19,89.83V936.09q0-10.58-1.76-12.6t-11.3-2.65l-1.41-.16v-4.85h36v4.85l-1.48.16q-9.54.62-11.26,2.65t-1.72,12.6v97Z"/><path class="cls-1" d="M450.94,1028.73q-22.27,5.71-37.6,5.71-25.71,0-41-16.53t-15.24-44.44q0-28.84,14.84-44.68T413.76,913a118.37,118.37,0,0,1,18.83,1.49,112.61,112.61,0,0,1,18,4.46v21h-8.68l-.11-1.56c-.14-1.41-.21-2.89-.21-4.46q0-7.34-7.18-11.53t-20-4.18q-19.22,0-29.6,14.58t-10.38,41.47q0,25.17,11.61,39.4t32.17,14.23a67.51,67.51,0,0,0,16.26-2.58v-22.75q0-10.65-1.72-12.64t-11.33-2.69l-1.41-.08v-4.85H465.4v4.85l-1.4.08q-9.62.7-11.34,2.69t-1.72,12.64Z"/><path class="cls-1" d="M561.25,1033.11l-69.9-96.93v75.13q0,10.62,1.72,12.63t11.34,2.7l1.41.08v4.85h-36.2v-4.85l1.41-.08q9.62-.7,11.33-2.7t1.72-12.62V936.09q0-10.66-1.71-12.64t-11.28-2.6l-1.47-.16v-4.85h26.19L560,1005.67V936.09q0-10.58-1.76-12.6t-11.3-2.65l-1.41-.16v-4.85h36v4.85l-1.49.16q-9.53.62-11.25,2.65t-1.72,12.6v97Z"/><path class="cls-1" d="M615.72,995.9,609,1011.27q-3.86,9.09-3.86,12.14,0,3.28,10.09,3.28h1.25v4.85h-30v-4.85l1.64-.08q6.72-.31,8-1.68t6.53-13.64l40.81-96.94h5.45l40.58,97.49q4.77,10.47,6.72,12.46t7.67,2.31l1.79.08v4.85H662.79v-4.85h1.41q10.94,0,10.94-3.13,0-4.62-3.28-12.28l-6.47-15.4Zm2.51-6.33h44.32l-22-52.69Z"/><path class="cls-1" d="M709,920.69v-4.85h33.2l34.54,84.29,33.81-84.29h29.08v4.85l-1.48.16q-9.46.62-11.22,2.65t-1.76,12.6v75.21q0,10.55,1.76,12.63t11.22,2.7l1.48.08v4.85H795.54v-4.85l1.4-.08q9.47-.62,11.18-2.7t1.72-12.62V931.8l-36.21,90.52h-5.79l-35.78-91.78v80.76q0,10.55,1.76,12.63t11.22,2.7l1.48.08v4.85H709v-4.85l1.48-.08q9.46-.62,11.22-2.7t1.76-12.62V936.09q0-10.58-1.72-12.6t-11.26-2.65Z"/><path class="cls-1" d="M901.38,1029.2v-22.28h8.21l.08,1.4q.24,3.91.24,5.86a10.23,10.23,0,0,0,5.08,9.31,33.91,33.91,0,0,0,18.29,5.16q10.4,0,16.26-5.9t5.87-16.3q0-8.75-3.75-13.91T937,981.28l-8.21-4.69q-26.58-15-26.57-32.75a28.68,28.68,0,0,1,9.57-22.12q9.58-8.75,24-8.76a83.48,83.48,0,0,1,13.56,1.21,128.8,128.8,0,0,1,15.68,3.71v20.56h-8.68l-.06-1.33c-.17-2.81-.25-4.87-.25-6.17q0-6.57-4.7-9.66t-14.72-3.08q-8.38,0-13.59,5.51t-5.21,14.5q0,7.66,3.6,12.67t13,10.32l8.21,4.69q17,9.7,23,16.89t5.94,18.06a30.83,30.83,0,0,1-10.75,24q-10.75,9.58-26.85,9.58a109.81,109.81,0,0,1-17.55-1.33A78.76,78.76,0,0,1,901.38,1029.2Z"/><path class="cls-1" d="M1012.94,983.23v28.07q0,10.39,1.88,12.63t11.18,2.7l3.37.08v4.85H982.21v-4.85l1.49-.08q9.46-.62,11.22-2.7t1.76-12.62V936.09q0-10.58-1.76-12.6t-11.22-2.65l-1.49-.16v-4.85h34.14l11.33-.39,5.36-.15q33.52,0,33.52,30.53,0,18.67-12.17,28t-36.59,9.37Zm0-5.23h5.76q15.29,0,22.9-8t7.61-23.84q0-13.53-5.81-19.31t-19.4-5.79h-11.07Z"/><path class="cls-1" d="M1099.77,995.9l-6.69,15.38q-3.86,9.09-3.86,12.14,0,3.28,10.09,3.28h1.25v4.85h-30v-4.85l1.64-.08q6.72-.31,8-1.68t6.53-13.64l40.82-96.94H1133l40.59,97.49q4.76,10.47,6.72,12.46t7.67,2.31l1.8.08v4.85h-42.92v-4.85h1.41q10.94,0,10.95-3.13,0-4.62-3.29-12.28l-6.47-15.4Zm2.51-6.33h44.32l-22-52.69Z"/><rect class="cls-2" x="0.5" y="1057" width="1189.26" height="6.33" rx="2.83" ry="2.83"/><path class="cls-1" d="M692.36,541.19,583.63,402.82V510.06q0,15.17,2.68,18t17.64,3.85l2.19.11V539H549.82V532l2.19-.11q15-1,17.63-3.85t2.68-18V402.71q0-15.22-2.66-18t-17.54-3.72l-2.29-.23V373.8h40.73L690.4,502V402.71q0-15.1-2.74-18t-17.57-3.78l-2.2-.23V373.8H724v6.92l-2.31.23q-14.83.88-17.51,3.78t-2.68,18V541.19Z"/><path class="cls-1" d="M668.07,551.14q-47.92,11.4-80.89,11.4-55.31,0-88.11-33T466.3,440.79q0-57.59,31.92-89.21T588.1,320a273.94,273.94,0,0,1,40.49,3,257.54,257.54,0,0,1,38.82,8.9v42H648.74l-.22-3.12a82.67,82.67,0,0,1-.46-8.91q0-14.66-15.44-23t-43-8.35q-41.32,0-63.66,29.12t-22.33,82.81q0,50.26,25,78.67t69.19,28.41q13.63,0,35-5.15V498.86q0-21.27-3.7-25.23t-24.38-5.36l-3-.16v-9.68h97.52v9.68l-3,.16q-20.68,1.39-24.38,5.36t-3.7,25.23Z"/><path class="cls-1" d="M802.58,184.31a64.1,64.1,0,0,1,13.09,2.91A102,102,0,0,1,827.83,193s-7.46-36-46.42-36c-20.36,0-41.22,13.91-41.22,13.91a62.88,62.88,0,0,0-9.93-14.4c-6.46-7-21.4-8.69-21.4-8.69s11.47,16.63,11.47,31-15.39,56.62-44.7,72.51-62.54,1.05-62.54,1.05,26.79-7.51,35.23-12,20.86-15.4,27.81-41.72,21.58-55.41,36.48-72.29S754,99.58,754,99.58s-3.42-6.71-23.78-6.71-38.5,20.08-41.09,19-.13-8.54-8.08-25.92-27-26-34.27-41.71c-5-10.76,7.4-44.2,7.4-44.2s-52.17,7.26-52.17,46.43c0,24.33,10,33.52,13.48,38s40.86,47.62,40.86,81.89c0,38.39-46.82,63.3-50.79,59.84s29.53-23.82,29.53-64.76c0-14.4-10.65-25.32-21.08-32.77s-18.91-45.19-18.91-45.19-8.48,37.74-18.91,45.19S555.14,147,555.14,161.4c0,40.94,33.5,61.31,29.53,64.76s-50.79-21.46-50.79-59.84c0-34.26,37.38-77.42,40.85-81.89s13.48-13.66,13.48-38C588.21,7.26,536,0,536,0s12.41,33.44,7.41,44.2c-7.31,15.73-26.32,24.33-34.27,41.71s-5.34,24.75-8.08,25.92c-2.59,1.11-20.73-19-41.09-19s-23.77,6.71-23.77,6.71,26.52,9.89,41.42,26.78,29.53,46,36.48,72.29,19.37,37.25,27.81,41.72,35.23,12,35.23,12-33.25,14.84-62.54-1.05-44.7-58.11-44.7-72.51,11.47-31,11.47-31-14.95,1.73-21.4,8.69a62.79,62.79,0,0,0-9.93,14.4s-20.86-13.91-41.22-13.91c-39,0-46.42,36-46.42,36a101.92,101.92,0,0,1,12.16-5.74,64,64,0,0,1,13.09-2.91,1.92,1.92,0,0,1,1.88,2.95c-2.79,4.37-7,12.33-7,20.32,0,25.07,30.07,43.38,30.07,43.38s-9.22-22-7.73-34.44,14.4-17.88,22.35-17.88c16.87,0,30.07,13.19,37.74,28.31,14.65,28.88,34.12,38.35,41.93,41.36a2.46,2.46,0,0,1,.59,4.3c-6.63,4.73-20.67,8.72-20.67,23.62,0,12.42,21.36,30.53,21.36,30.53s-4.89-23.76,3.05-32.7,10.85-8,17.31-8,13.41,3.48,25.82,3.48c15.86,0,31.56-15.44,38.33-22.7,2.58-2.77,2.88-2.77,5.46,0,6.77,7.26,21.87,22.7,37.73,22.7,12.42,0,19.37-3.48,25.83-3.48s9.36-.92,17.3,8,3.05,32.7,3.05,32.7,21.36-18.12,21.36-30.53c0-14.9-14-18.89-20.67-23.62a2.45,2.45,0,0,1,.59-4.3c7.81-3,27.27-12.48,41.93-41.36,7.67-15.12,20.87-28.31,37.74-28.31,8,0,20.86,5.46,22.35,17.88S777.65,251,777.65,251s30.07-18.31,30.07-43.38c0-8-4.23-16-7-20.32A1.92,1.92,0,0,1,802.58,184.31ZM595.13,209.06c-2.39,0-16.44-25.46-16.44-38.45s12-24.94,16.44-24.94c3.93,0,16.39,9.66,16.39,22.83C611.53,184.13,597.52,209.06,595.13,209.06Z"/><path class="cls-1" d="M723.59,304c.8,1.41-.28-1.69,18.5-1.69s20.74,10.37,21.72,10.37S767.74,300.35,768,296s.56-13,0-15.84-1.41-7.25-3.79-10.33-7.42-4-10.65-4.81A79.7,79.7,0,0,0,738,263.35c-4.4,0-14.44,2.95-14.44,4.49s6.73,9.39,6.73,16C730.31,302.34,722.65,302.36,723.59,304Z"/><path class="cls-1" d="M462.76,304c-.8,1.41.28-1.69-18.5-1.69s-20.74,10.37-21.73,10.37-3.92-12.33-4.2-16.68-.56-13,0-15.84,1.4-7.25,3.79-10.33,7.42-4,10.65-4.81a79.7,79.7,0,0,1,15.56-1.68c4.4,0,14.44,2.95,14.44,4.49s-6.73,9.39-6.73,16C456,302.34,463.7,302.36,462.76,304Z"/><path class="cls-1" d="M800.71,691.56c2.79-4.37,7-12.33,7-20.33,0-25.07-30.07-43.37-30.07-43.37s9.21,22,7.72,34.44S771,680.17,763,680.17c-16.87,0-30.07-13.19-37.74-28.31-14.65-28.88-34.12-38.34-41.93-41.36a2.46,2.46,0,0,1-.59-4.3c6.63-4.73,20.67-8.72,20.67-23.62,0-12.41-21.36-30.53-21.36-30.53s4.89,23.76-3.05,32.7-10.85,8-17.3,8-13.41-3.48-25.83-3.48c-15.86,0-31,15.44-37.73,22.7-2.58,2.77-2.88,2.77-5.46,0-6.77-7.26-22.47-22.7-38.33-22.7-12.41,0-19.37,3.48-25.82,3.48s-9.36.91-17.31-8-3.05-32.7-3.05-32.7-21.36,18.12-21.36,30.53c0,14.91,14,18.9,20.67,23.62a2.46,2.46,0,0,1-.59,4.3c-7.8,3-27.27,12.48-41.93,41.36-7.67,15.11-20.87,28.31-37.74,28.31-8,0-20.86-5.46-22.35-17.88s7.73-34.44,7.73-34.44-30.07,18.31-30.07,43.38c0,8,4.23,16,7,20.33a1.92,1.92,0,0,1-1.88,2.94,63.47,63.47,0,0,1-13.09-2.91,100.85,100.85,0,0,1-12.16-5.73s7.46,36,46.42,36c20.36,0,41.22-13.9,41.22-13.9a62.78,62.78,0,0,0,9.93,14.4c6.46,7,21.4,8.68,21.4,8.68s-11.47-16.63-11.47-31,15.4-56.61,44.7-72.51,62.54-1.05,62.54-1.05S550.4,634,542,638.46s-20.86,15.39-27.81,41.71-21.58,55.41-36.48,72.29-41.42,26.77-41.42,26.77,3.41,6.71,23.77,6.71,38.51-20.08,41.09-19c2.74,1.17.13,8.54,8.08,25.92s27,26,34.27,41.72c5,10.76-7.41,44.2-7.41,44.2s52.17-7.26,52.17-46.43c0-24.34-10-33.52-13.48-38s-40.85-47.62-40.85-81.89c0-38.39,46.81-63.3,50.79-59.85s-29.53,23.83-29.53,64.77c0,14.4,10.66,25.32,21.08,32.77s18.91,45.19,18.91,45.19,8.48-37.75,18.91-45.19,21.08-18.36,21.08-32.77c0-40.94-33.5-61.31-29.53-64.77s50.79,21.46,50.79,59.85c0,34.27-37.38,77.42-40.86,81.89s-13.48,13.66-13.48,38c0,39.17,52.17,46.43,52.17,46.43s-12.4-33.44-7.4-44.2c7.31-15.73,26.32-24.33,34.27-41.72s5.34-24.75,8.08-25.92,20.73,19,41.09,19S754,779.24,754,779.24s-26.53-9.89-41.43-26.77-29.53-46-36.48-72.29-19.37-37.25-27.81-41.71-35.23-12-35.23-12,33.24-14.84,62.54,1.05,44.7,58.1,44.7,72.51-11.47,31-11.47,31,14.94-1.73,21.4-8.68a62.87,62.87,0,0,0,9.93-14.4s20.85,13.9,41.22,13.9c39,0,46.42-36,46.42-36a100.89,100.89,0,0,1-12.15,5.73,63.53,63.53,0,0,1-13.09,2.91A1.92,1.92,0,0,1,800.71,691.56ZM611.53,710.32c0,13.17-12.47,22.82-16.39,22.82-4.45,0-16.44-11.94-16.44-24.93s14-38.45,16.44-38.45S611.53,694.69,611.53,710.32Z"/><path class="cls-1" d="M723.59,574.81c.8-1.41-.28,1.69,18.5,1.69s20.74-10.37,21.72-10.37,3.92,12.34,4.21,16.68.56,13,0,15.84-1.41,7.25-3.79,10.33-7.42,4-10.65,4.81A79.61,79.61,0,0,1,738,615.47c-4.4,0-14.44-2.94-14.44-4.49s6.73-9.39,6.73-16C730.31,576.47,722.65,576.46,723.59,574.81Z"/><path class="cls-1" d="M462.76,574.81c-.8-1.41.28,1.69-18.5,1.69s-20.74-10.37-21.73-10.37-3.92,12.34-4.2,16.68-.56,13,0,15.84,1.4,7.25,3.79,10.33,7.42,4,10.65,4.81a79.62,79.62,0,0,0,15.56,1.68c4.4,0,14.44-2.94,14.44-4.49S456,601.59,456,595C456,576.47,463.7,576.46,462.76,574.81Z"/><path class="cls-1" d="M850.23,646.86a64.12,64.12,0,0,1-2.91,13.09,101.1,101.1,0,0,1-5.73,12.16s36-7.46,36-46.42c0-20.36-13.9-41.22-13.9-41.22a62.92,62.92,0,0,0,14.4-9.93c7-6.46,8.68-21.41,8.68-21.41s-16.63,11.47-31,11.47-56.61-15.39-72.5-44.69-1.05-62.54-1.05-62.54,7.51,26.79,12,35.23,15.39,20.86,41.72,27.81S891.3,542,908.19,556.88,935,598.3,935,598.3s6.71-3.42,6.71-23.77-20.08-38.51-19-41.09c1.18-2.74,8.54-.13,25.92-8.08s26-27,41.71-34.27c10.76-5,44.2,7.41,44.2,7.41s-7.25-52.17-46.43-52.17c-24.33,0-33.53,10-38,13.48s-47.63,40.85-81.89,40.85c-38.39,0-63.3-46.81-59.85-50.79s23.83,29.53,64.77,29.53c14.4,0,25.32-10.66,32.77-21.08s45.19-18.91,45.19-18.91-37.74-8.49-45.19-18.91-18.37-21.08-32.77-21.08c-40.94,0-61.31,33.5-64.77,29.53s21.46-50.79,59.85-50.79c34.26,0,77.42,37.38,81.89,40.85s13.66,13.48,38,13.48c39.17,0,46.43-52.17,46.43-52.17s-33.44,12.4-44.2,7.4c-15.73-7.31-24.33-26.32-41.71-34.26s-24.75-5.34-25.92-8.08c-1.11-2.58,19-20.73,19-41.09S935,280.51,935,280.51s-9.89,26.53-26.77,41.43-46,29.53-72.29,36.48-37.24,19.37-41.72,27.81-12,35.23-12,35.23-14.84-33.25,1.05-62.54,58.1-44.7,72.5-44.7,31,11.47,31,11.47-1.73-14.94-8.68-21.4a63,63,0,0,0-14.4-9.94s13.9-20.85,13.9-41.21c0-39-36-46.43-36-46.43a101.1,101.1,0,0,1,5.73,12.16A64.14,64.14,0,0,1,850.23,232a1.92,1.92,0,0,1-2.95,1.88c-4.37-2.78-12.33-7-20.32-7-25.07,0-43.38,30.07-43.38,30.07s22-9.21,34.44-7.72,17.88,14.4,17.88,22.35c0,16.88-13.19,30.07-28.31,37.75-28.88,14.65-38.34,34.12-41.36,41.92a2.45,2.45,0,0,1-4.29.59c-4.73-6.63-8.72-20.67-23.62-20.67-12.42,0-30.54,21.36-30.54,21.36s23.76-4.89,32.7,3.05,8,10.85,8,17.31S745,386.23,745,398.65c0,15.87,15.44,31.56,22.7,38.33,2.77,2.58,2.77,2.88,0,5.46-7.26,6.77-22.7,21.87-22.7,37.73,0,12.41,3.48,19.36,3.48,25.82s.92,9.37-8,17.31-32.7,3.05-32.7,3.05,18.12,21.36,30.54,21.36c14.9,0,18.89-14,23.62-20.67a2.45,2.45,0,0,1,4.29.6c3,7.8,12.48,27.27,41.36,41.93,15.12,7.67,28.31,20.87,28.31,37.74,0,7.95-5.46,20.86-17.88,22.35s-34.44-7.72-34.44-7.72S801.89,652,827,652c8,0,16-4.23,20.32-7A1.93,1.93,0,0,1,850.23,646.86ZM825.48,439.41c0-2.39,25.46-16.44,38.45-16.44s24.93,12,24.93,16.44c0,3.92-9.66,16.39-22.83,16.39C850.41,455.8,825.48,441.8,825.48,439.41Z"/><path class="cls-1" d="M343,645c4.37,2.79,12.33,7,20.32,7,25.07,0,43.38-30.08,43.38-30.08s-22,9.22-34.44,7.72-17.88-14.4-17.88-22.35c0-16.87,13.19-30.07,28.31-37.74C411.56,554.91,421,535.44,424,527.64a2.46,2.46,0,0,1,4.3-.6c4.73,6.63,8.72,20.67,23.62,20.67,12.41,0,30.53-21.36,30.53-21.36s-23.76,4.89-32.7-3.05-8-10.85-8-17.31,3.48-13.41,3.48-25.82c0-15.87-15.44-31-22.7-37.73-2.77-2.58-2.77-2.88,0-5.46,7.26-6.77,22.7-22.46,22.7-38.33,0-12.42-3.48-19.37-3.48-25.83s-.92-9.36,8-17.31,32.7-3.05,32.7-3.05S464.38,331.1,452,331.1c-14.9,0-18.89,14-23.62,20.67a2.45,2.45,0,0,1-4.3-.59c-3-7.8-12.48-27.27-41.37-41.92-15.12-7.67-28.31-20.87-28.31-37.75,0-7.94,5.46-20.86,17.88-22.35s34.44,7.72,34.44,7.72-18.31-30.07-43.38-30.07c-8,0-16,4.23-20.32,7A1.92,1.92,0,0,1,340,232a63.89,63.89,0,0,1,2.91-13.08,101.35,101.35,0,0,1,5.73-12.16s-36,7.46-36,46.43c0,20.36,13.91,41.21,13.91,41.21a63,63,0,0,0-14.4,9.94c-7,6.46-8.68,21.4-8.68,21.4s16.63-11.47,31-11.47,56.62,15.39,72.51,44.7,1.05,62.54,1.05,62.54-7.5-26.79-12-35.23-15.4-20.86-41.72-27.81S299,336.84,282.07,321.94s-26.77-41.43-26.77-41.43-6.71,3.42-6.71,23.78,20.08,38.5,19,41.09c-1.17,2.74-8.54.13-25.92,8.08s-26,27-41.72,34.26c-10.76,5-44.2-7.4-44.2-7.4s7.25,52.17,46.43,52.17c24.34,0,33.53-10,38-13.48s47.62-40.85,81.89-40.85c38.38,0,63.29,46.82,59.84,50.79s-23.83-29.53-64.77-29.53c-14.4,0-25.32,10.65-32.77,21.08s-45.19,18.91-45.19,18.91,37.75,8.48,45.19,18.91,18.37,21.08,32.77,21.08c40.94,0,61.31-33.5,64.77-29.53S360.42,500.66,322,500.66c-34.27,0-77.42-37.38-81.89-40.85s-13.66-13.48-38-13.48c-39.17,0-46.43,52.17-46.43,52.17s33.44-12.41,44.2-7.41c15.73,7.31,24.33,26.32,41.72,34.27s24.75,5.34,25.92,8.08c1.11,2.58-19,20.73-19,41.09s6.71,23.77,6.71,23.77,9.89-26.53,26.77-41.43,46-29.53,72.29-36.48,37.25-19.37,41.72-27.81,12-35.23,12-35.23S422.91,490.6,407,519.9s-58.1,44.69-72.51,44.69-31-11.47-31-11.47,1.73,14.95,8.68,21.41a62.93,62.93,0,0,0,14.4,9.93s-13.91,20.86-13.91,41.22c0,39,36,46.42,36,46.42a101.35,101.35,0,0,1-5.73-12.16A63.87,63.87,0,0,1,340,646.86,1.92,1.92,0,0,1,343,645ZM324.22,455.8c-13.17,0-22.82-12.47-22.82-16.39,0-4.46,11.94-16.44,24.93-16.44s38.45,14.05,38.45,16.44S339.85,455.8,324.22,455.8Z"/></g></g></svg>